# xmcd
#
# Track frame offsets:
#	150
#	15623
#	34333
#	54511
#	80513
#	96190
#	132844
#	165022
#	185806
#
# Disc length: 2742 seconds
#
# Revision: 1
# Processed by: cddbd v1.5.2PL0 Copyright (c) Steve Scherf et al.
# Submitted via: EasyCDDAExtractor 15.3.0.1
#
DISCID=6b0ab409
DTITLE=Gloria Trevi - Inmortal - CD 1
DYEAR=2016
DGENRE=Latin
TTITLE0=Intro Una Rosa Blu, Psicofonia, Horas Tranquilas, Mañana
TTITLE1=Cama Y Mesa
TTITLE2=Como Yo Te Amo
TTITLE3=Un Dia Mas De Vida, Ella Que Nunca Fue Ella, Tu Angel De La Guarda
TTITLE4=Pruebamelo
TTITLE5=Y Ahora Quien
TTITLE6=Ese Hombre Es Malo
TTITLE7=Te Quiero, Como Nace El Universo
TTITLE8=El Amor Despues Del Amor
EXTD=
EXTT0=
EXTT1=
EXTT2=
EXTT3=
EXTT4=
EXTT5=
EXTT6=
EXTT7=
EXTT8=
PLAYORDER=
